<svg width="21" height="21" viewBox="0 0 21 21" fill="none" xmlns="http://www.w3.org/2000/svg">
<g clip-path="url(#clip0)">
<path d="M12.6 10.309C12.6 10.7621 12.4656 11.2051 12.2139 11.5818C11.9622 11.9586 11.6044 12.2522 11.1857 12.4256C10.7671 12.599 10.3065 12.6444 9.86205 12.556C9.41764 12.4676 9.00942 12.2494 8.68902 11.929C8.36862 11.6086 8.15042 11.2004 8.06202 10.756C7.97362 10.3115 8.01899 9.8509 8.19239 9.43227C8.36579 9.01365 8.65944 8.65584 9.03619 8.4041C9.41294 8.15236 9.85588 8.018 10.309 8.018C10.9166 8.018 11.4993 8.25937 11.929 8.68902C12.3586 9.11866 12.6 9.70139 12.6 10.309V10.309ZM15.9 7.532C15.933 8.256 15.94 8.474 15.94 10.309C15.94 12.144 15.933 12.361 15.9 13.086C15.9358 13.4644 15.8877 13.846 15.759 14.2036C15.6303 14.5612 15.4243 14.886 15.1556 15.1548C14.8869 15.4236 14.5621 15.6298 14.2046 15.7586C13.847 15.8874 13.4654 15.9357 13.087 15.9C12.362 15.933 12.145 15.94 10.309 15.94C8.473 15.94 8.256 15.933 7.532 15.9C7.15298 15.9366 6.77056 15.8888 6.41216 15.7602C6.05377 15.6316 5.72827 15.4252 5.45902 15.156C5.18977 14.8867 4.98343 14.5612 4.85479 14.2028C4.72616 13.8444 4.67842 13.462 4.715 13.083C4.681 12.357 4.674 12.14 4.674 10.305C4.674 8.47 4.682 8.253 4.714 7.528C4.67805 7.1493 4.72626 6.76733 4.85518 6.40943C4.98409 6.05153 5.19053 5.72656 5.4597 5.45776C5.72888 5.18897 6.05415 4.98299 6.41223 4.85459C6.77031 4.72618 7.15235 4.67851 7.531 4.715C8.256 4.681 8.473 4.675 10.308 4.675C12.143 4.675 12.361 4.682 13.085 4.715C13.4637 4.67929 13.8457 4.72764 14.2036 4.85661C14.5615 4.98558 14.8865 5.19198 15.1554 5.46107C15.4243 5.73017 15.6305 6.05532 15.7592 6.41331C15.8879 6.77129 15.936 7.15328 15.9 7.532V7.532ZM13.834 10.309C13.834 9.61103 13.627 8.92873 13.2393 8.34839C12.8515 7.76805 12.3003 7.31573 11.6555 7.04863C11.0106 6.78153 10.3011 6.71164 9.61653 6.84781C8.93197 6.98398 8.30316 7.32008 7.80962 7.81362C7.31608 8.30716 6.97998 8.93597 6.84381 9.62053C6.70764 10.3051 6.77753 11.0146 7.04463 11.6595C7.31173 12.3043 7.76405 12.8555 8.34439 13.2433C8.92473 13.631 9.60703 13.838 10.305 13.838C10.7688 13.8385 11.2281 13.7476 11.6567 13.5705C12.0853 13.3934 12.4748 13.1335 12.803 12.8058C13.1311 12.478 13.3914 12.0888 13.569 11.6604C13.7466 11.232 13.838 10.7728 13.838 10.309H13.834ZM14.8 6.641C14.8 6.47783 14.7516 6.31832 14.661 6.18265C14.5703 6.04698 14.4415 5.94124 14.2907 5.8788C14.14 5.81636 13.9741 5.80002 13.8141 5.83185C13.654 5.86368 13.507 5.94226 13.3916 6.05764C13.2763 6.17302 13.1977 6.32002 13.1659 6.48005C13.134 6.64008 13.1504 6.80596 13.2128 6.95671C13.2752 7.10746 13.381 7.23631 13.5167 7.32696C13.6523 7.41761 13.8118 7.466 13.975 7.466C14.1938 7.466 14.4036 7.37908 14.5584 7.22436C14.7131 7.06965 14.8 6.8598 14.8 6.641ZM20.618 0V20.618H0V0H20.618ZM17.181 10.309C17.181 8.443 17.173 8.209 17.14 7.476C17.1698 6.94289 17.0868 6.40949 16.8963 5.91068C16.7059 5.41186 16.4122 4.95887 16.0347 4.58131C15.6571 4.20376 15.2041 3.91015 14.7053 3.71968C14.2065 3.52921 13.6731 3.44618 13.14 3.476C12.406 3.442 12.173 3.434 10.306 3.434C8.439 3.434 8.206 3.442 7.473 3.475C6.93989 3.44518 6.40649 3.52821 5.90768 3.71868C5.40886 3.90915 4.95587 4.20276 4.57831 4.58031C4.20076 4.95787 3.90715 5.41086 3.71668 5.90968C3.52621 6.40849 3.44318 6.94189 3.473 7.475C3.439 8.209 3.432 8.443 3.432 10.309C3.432 12.175 3.44 12.409 3.473 13.142C3.44318 13.6751 3.52621 14.2085 3.71668 14.7073C3.90715 15.2061 4.20076 15.6591 4.57831 16.0367C4.95587 16.4142 5.40886 16.7079 5.90768 16.8983C6.40649 17.0888 6.93989 17.1718 7.473 17.142C8.207 17.176 8.439 17.183 10.306 17.183C12.173 17.183 12.406 17.175 13.14 17.142C13.6731 17.1718 14.2065 17.0888 14.7053 16.8983C15.2041 16.7079 15.6571 16.4142 16.0347 16.0367C16.4122 15.6591 16.7059 15.2061 16.8963 14.7073C17.0868 14.2085 17.1698 13.6751 17.14 13.142C17.174 12.409 17.181 12.176 17.181 10.309Z" fill="#E03050"/>
</g>
<defs>
<clipPath id="clip0">
<rect width="20.618" height="20.618" fill="white"/>
</clipPath>
</defs>
</svg>
