<svg xmlns="http://www.w3.org/2000/svg" width="20.618" height="20.618" viewBox="0 0 20.618 20.618">
  <path id="instagram-icon" d="M12.6,10.309a2.291,2.291,0,1,1-2.291-2.291A2.291,2.291,0,0,1,12.6,10.309Zm3.3-2.777c.033.724.04.942.04,2.777s-.007,2.052-.04,2.777A2.582,2.582,0,0,1,13.087,15.9c-.725.033-.942.04-2.778.04s-2.053-.007-2.777-.04a2.581,2.581,0,0,1-2.817-2.817c-.034-.726-.041-.943-.041-2.778s.008-2.052.04-2.777A2.581,2.581,0,0,1,7.531,4.715c.725-.034.942-.04,2.777-.04s2.053.007,2.777.04A2.584,2.584,0,0,1,15.9,7.532Zm-2.066,2.777a3.529,3.529,0,1,0-3.529,3.529A3.529,3.529,0,0,0,13.838,10.309ZM14.8,6.641a.825.825,0,1,0-.825.825.825.825,0,0,0,.825-.825ZM20.618,0V20.618H0V0ZM17.181,10.309c0-1.866-.008-2.1-.041-2.833a3.794,3.794,0,0,0-4-4c-.734-.034-.967-.042-2.834-.042s-2.1.008-2.833.041a3.794,3.794,0,0,0-4,4c-.034.734-.041.968-.041,2.834s.008,2.1.041,2.833a3.794,3.794,0,0,0,4,4c.734.034.966.041,2.833.041s2.1-.008,2.834-.041a3.794,3.794,0,0,0,4-4C17.174,12.409,17.181,12.176,17.181,10.309Z" fill="#12ccac"/>
</svg>
