<svg width="21" height="21" viewBox="0 0 21 21" fill="none" xmlns="http://www.w3.org/2000/svg">
<g clip-path="url(#clip0)">
<path d="M0 0V20.62H20.62V0H0ZM6.873 16.324H4.3V6.873H6.873V16.324ZM5.585 5.784C5.2845 5.78717 4.98984 5.70096 4.73844 5.53632C4.48704 5.37168 4.29024 5.13604 4.17304 4.85932C4.05584 4.5826 4.02353 4.27729 4.0802 3.98217C4.13688 3.68705 4.27999 3.41543 4.49135 3.20181C4.70272 2.98819 4.97281 2.84221 5.26731 2.78241C5.56181 2.7226 5.86745 2.75168 6.14539 2.86593C6.42334 2.98019 6.66106 3.17448 6.82835 3.42412C6.99565 3.67376 7.08498 3.96749 7.085 4.268C7.0866 4.66779 6.92958 5.05189 6.64839 5.33608C6.3672 5.62028 5.98478 5.78136 5.585 5.784V5.784ZM17.185 16.324H14.606V11.509C14.606 8.615 11.169 8.834 11.169 11.509V16.324H8.592V6.873H11.169V8.39C12.369 6.168 17.183 6.004 17.183 10.517L17.185 16.324Z" fill="#E03050"/>
</g>
<defs>
<clipPath id="clip0">
<rect width="20.62" height="20.62" fill="white"/>
</clipPath>
</defs>
</svg>
