<svg xmlns="http://www.w3.org/2000/svg" width="156.519" height="58.07" viewBox="0 0 156.519 58.07">
  <g id="Group_8" data-name="Group 8" transform="translate(-128 -23.233)">
    <g id="Group_6" data-name="Group 6">
      <g id="Group_5" data-name="Group 5" transform="translate(128 23.232)">
        <path id="Path_301" data-name="Path 301" d="M25.936,0,.16,15l14,8.092,11.778-6.858Z" transform="translate(-0.12)" fill="#66ffe4"/>
        <path id="Path_302" data-name="Path 302" d="M0,59.173V75.149l.218.129L19.231,86.321l.289-.167L33.2,78.276,14.064,67.223l-14-8.088Z" transform="translate(0 -44.144)" fill="#12ccac"/>
        <path id="Path_303" data-name="Path 303" d="M111,44.9l11.709,6.8,13.895-8v-.084L111,28.835Z" transform="translate(-82.861 -21.525)" fill="#12ccac"/>
        <path id="Path_304" data-name="Path 304" d="M96.26,95.243l-7.128,4.122L75.5,107.247v15.948l34.6-20.009V87.24Z" transform="translate(-56.361 -65.124)" fill="#66ffe4"/>
      </g>
      <path id="Path_306" data-name="Path 306" d="M1.65,24V5.516H8.125a8.5,8.5,0,0,1,5.1,1.289,4.406,4.406,0,0,1,1.739,3.777,4.176,4.176,0,0,1-.7,2.393,4.033,4.033,0,0,1-1.942,1.517,3.9,3.9,0,0,1,2.241,1.435,4.241,4.241,0,0,1,.819,2.641,4.878,4.878,0,0,1-1.7,4.037A7.658,7.658,0,0,1,8.836,24Zm3.809-8.049V20.94H8.722a3.149,3.149,0,0,0,2.1-.641,2.2,2.2,0,0,0,.755-1.771q0-2.539-2.628-2.577Zm0-2.691H8.277q2.882-.051,2.882-2.3a2.123,2.123,0,0,0-.73-1.809,3.839,3.839,0,0,0-2.3-.552H5.459ZM32.233,5.516V17.69a6.233,6.233,0,0,1-1.9,4.8,7.317,7.317,0,0,1-5.186,1.765,7.4,7.4,0,0,1-5.142-1.714,6.127,6.127,0,0,1-1.942-4.71V5.516h3.809v12.2a3.522,3.522,0,0,0,.87,2.647,3.338,3.338,0,0,0,2.406.832q3.212,0,3.263-3.377V5.516Zm17.113,0V17.69a6.233,6.233,0,0,1-1.9,4.8,7.317,7.317,0,0,1-5.186,1.765,7.4,7.4,0,0,1-5.142-1.714,6.127,6.127,0,0,1-1.942-4.71V5.516h3.809v12.2a3.522,3.522,0,0,0,.87,2.647,3.338,3.338,0,0,0,2.406.832q3.212,0,3.263-3.377V5.516ZM62.055,19.15a1.954,1.954,0,0,0-.762-1.657,9.991,9.991,0,0,0-2.742-1.219,19.439,19.439,0,0,1-3.136-1.263q-3.148-1.7-3.148-4.583a4.464,4.464,0,0,1,.844-2.672,5.507,5.507,0,0,1,2.425-1.834,9.127,9.127,0,0,1,3.548-.66,8.307,8.307,0,0,1,3.529.717A5.62,5.62,0,0,1,65.019,8a5.3,5.3,0,0,1,.857,2.971H62.067A2.493,2.493,0,0,0,61.268,9a3.288,3.288,0,0,0-2.247-.7,3.513,3.513,0,0,0-2.171.59,1.862,1.862,0,0,0-.774,1.555,1.783,1.783,0,0,0,.908,1.511,10.255,10.255,0,0,0,2.672,1.143,11.547,11.547,0,0,1,4.735,2.425,4.829,4.829,0,0,1,1.485,3.605,4.448,4.448,0,0,1-1.815,3.764,7.948,7.948,0,0,1-4.888,1.365,9.438,9.438,0,0,1-3.885-.781,6.147,6.147,0,0,1-2.672-2.139,5.478,5.478,0,0,1-.92-3.148h3.821q0,3.06,3.656,3.06a3.557,3.557,0,0,0,2.12-.552A1.8,1.8,0,0,0,62.055,19.15Z" transform="translate(189 39.232)" fill="#fff"/>
      <path id="Path_305" data-name="Path 305" d="M.889,13V3.047H3.951A4.651,4.651,0,0,1,6.3,3.638,4.123,4.123,0,0,1,7.916,5.32,5.187,5.187,0,0,1,8.5,7.8v.458a5.2,5.2,0,0,1-.571,2.468A4.088,4.088,0,0,1,6.316,12.4a4.686,4.686,0,0,1-2.345.6ZM2.939,4.708v6.645h.991a2.227,2.227,0,0,0,1.839-.786,3.552,3.552,0,0,0,.649-2.249V7.791a3.609,3.609,0,0,0-.629-2.3,2.219,2.219,0,0,0-1.839-.783ZM15.416,8.687H11.478v2.666H16.1V13H9.427V3.047h6.658V4.708H11.478V7.08h3.938Zm5.564,1.846,2.256-7.485h2.283L22.053,13h-2.14L16.461,3.047h2.276Z" transform="translate(259 50.232)" fill="#66ffe4"/>
    </g>
  </g>
</svg>
