<svg width="21" height="21" viewBox="0 0 21 21" fill="none" xmlns="http://www.w3.org/2000/svg">
<g clip-path="url(#clip0)">
<path d="M0 0V20.62H20.62V0H0ZM16.206 7.936C16.2738 9.40527 15.9362 10.8649 15.2303 12.1552C14.5244 13.4456 13.4772 14.517 12.2034 15.2523C10.9295 15.9876 9.47803 16.3585 8.00759 16.3244C6.53715 16.2903 5.1044 15.8525 3.866 15.059C5.35774 15.2379 6.85954 14.8179 8.042 13.891C7.45353 13.8798 6.88327 13.685 6.41099 13.3337C5.93871 12.9825 5.58803 12.4924 5.408 11.932C5.83048 12.0127 6.2658 11.9963 6.681 11.884C6.03703 11.7535 5.45876 11.4024 5.04585 10.8913C4.63294 10.3802 4.41126 9.74102 4.419 9.084C4.81167 9.30218 5.25098 9.4229 5.7 9.436C5.10309 9.03679 4.68061 8.42526 4.51845 7.72571C4.35629 7.02616 4.46661 6.29112 4.827 5.67C5.53519 6.54129 6.41868 7.25391 7.42014 7.76161C8.42159 8.26932 9.51861 8.56075 10.64 8.617C10.4993 8.01233 10.562 7.37815 10.8182 6.81268C11.0745 6.24722 11.51 5.78203 12.0574 5.48919C12.6049 5.19635 13.2336 5.09219 13.8462 5.19286C14.4588 5.29352 15.0211 5.59338 15.446 6.046C16.0776 5.92182 16.6834 5.69049 17.237 5.362C17.0266 6.01523 16.5859 6.56968 15.997 6.922C16.5561 6.85552 17.1021 6.70586 17.617 6.478C17.2378 7.04329 16.7614 7.53692 16.21 7.936H16.206Z" fill="#E03050"/>
</g>
<defs>
<clipPath id="clip0">
<rect width="20.62" height="20.62" fill="white"/>
</clipPath>
</defs>
</svg>
