<svg xmlns="http://www.w3.org/2000/svg" width="20.62" height="20.62" viewBox="0 0 20.62 20.62">
  <path id="iconmonstr-twitter-2" d="M0,0V20.62H20.62V0ZM16.206,7.936A8.021,8.021,0,0,1,3.866,15.059a5.674,5.674,0,0,0,4.176-1.168,2.823,2.823,0,0,1-2.634-1.959,2.836,2.836,0,0,0,1.273-.048,2.823,2.823,0,0,1-2.262-2.8A2.806,2.806,0,0,0,5.7,9.436a2.825,2.825,0,0,1-.873-3.766,8.008,8.008,0,0,0,5.813,2.947,2.822,2.822,0,0,1,4.806-2.571,5.643,5.643,0,0,0,1.791-.684,2.828,2.828,0,0,1-1.24,1.56,5.652,5.652,0,0,0,1.62-.444,5.762,5.762,0,0,1-1.407,1.458Z" fill="#00d1ac"/>
</svg>
